<svg width="56" height="56" viewBox="0 0 56 56" fill="none" xmlns="http://www.w3.org/2000/svg">
<g clip-path="url(#clip0_137_2)">
<path d="M55 1H1V55H55V1Z" stroke="#F9BC60"/>
<path d="M37 1H19V55H37V1Z" stroke="#F9BC60"/>
<path d="M55 19H1V37H55V19Z" stroke="#F9BC60"/>
<path d="M28 17C31.866 17 35 13.866 35 10C35 6.13401 31.866 3 28 3C24.134 3 21 6.13401 21 10C21 13.866 24.134 17 28 17Z" fill="#F9BC60"/>
<path d="M46 35C49.866 35 53 31.866 53 28C53 24.134 49.866 21 46 21C42.134 21 39 24.134 39 28C39 31.866 42.134 35 46 35Z" fill="#F9BC60"/>
<path d="M46 53C49.866 53 53 49.866 53 46C53 42.134 49.866 39 46 39C42.134 39 39 42.134 39 46C39 49.866 42.134 53 46 53Z" fill="#F9BC60"/>
<path d="M28 53C31.866 53 35 49.866 35 46C35 42.134 31.866 39 28 39C24.134 39 21 42.134 21 46C21 49.866 24.134 53 28 53Z" fill="#F9BC60"/>
<path d="M10 53C13.866 53 17 49.866 17 46C17 42.134 13.866 39 10 39C6.13401 39 3 42.134 3 46C3 49.866 6.13401 53 10 53Z" fill="#F9BC60"/>
</g>
<defs>
<clipPath id="clip0_137_2">
<rect width="56" height="56" fill="white"/>
</clipPath>
</defs>
</svg>
